<svg xmlns="http://www.w3.org/2000/svg" xmlns:xlink="http://www.w3.org/1999/xlink" version="1.1" id="Layer_1" x="0px" y="0px" viewBox="0 0 100 100" enable-background="new 0 0 100 100" xml:space="preserve" height="100px" width="100px">
<path fill="#000000" d="M88.162,3.446c-1.675,0-3.282,0.609-4.536,1.716c-1.428,1.104-28.038,21.731-41.061,34.754  C30.81,51.672,25.4,61.459,24.07,64.07l-0.945,0.443c-5.281,2.467-11.266,5.263-14.65,9.812c-5.611,7.542-5.416,13.816-3.283,21.496  c0.205,0.736,0.81,1.291,1.561,1.431c0.123,0.023,0.245,0.034,0.367,0.034c0.625,0,1.223-0.293,1.604-0.806  c1.937-2.603,5.697-4.236,9.677-5.965c4.725-2.052,9.61-4.174,12.697-8.324c1.968-2.645,2.912-5.328,3.572-7.874  c2.93-1.623,13.304-7.745,24.251-18.691c12.26-12.26,33.342-39.307,34.442-40.72c2.398-2.711,2.277-6.818-0.354-9.45  C91.714,4.159,89.993,3.446,88.162,3.446z M33.64,56.408l8.381,8.381c-3.934,2.853-7.079,4.76-8.728,5.707l-5.295-5.296  C28.869,63.585,30.685,60.462,33.64,56.408z M27.89,79.802c-2.451,3.294-6.838,5.2-11.082,7.043  c-0.259,0.113-0.519,0.227-0.779,0.34c-1.123-2.039-0.86-3.778-2.455-5.62c-1.044-1.206-2.318-1.961-3.484-2.437  c0.456-0.787,0.979-1.588,1.594-2.415c2.782-3.739,8.282-6.309,13.134-8.575l0.314-0.147l5.595,5.595  C30.207,75.544,29.451,77.704,27.89,79.802z M90.344,12.281c-0.034,0.038-0.066,0.076-0.097,0.116  c-0.216,0.279-21.803,28.05-34.153,40.399c-3.767,3.767-7.49,6.953-10.843,9.565l-9.072-9.072c-0.032-0.033-0.07-0.056-0.104-0.085  c2.492-3.158,5.567-6.705,9.32-10.458C58.529,29.61,85.853,8.497,86.127,8.285c0.042-0.032,0.082-0.065,0.121-0.101  c1.09-0.988,2.831-1.004,3.998,0.163C91.323,9.425,91.366,11.152,90.344,12.281z"/>
</svg>