<svg xmlns="http://www.w3.org/2000/svg" xmlns:xlink="http://www.w3.org/1999/xlink" version="1.1" id="Layer_1" x="0px" y="0px" viewBox="0 0 100 100" enable-background="new 0 0 100 100" xml:space="preserve" height="100px" width="100px">
<path fill="#000000" d="M8,92c0.086,0,0.172-0.006,0.259-0.017l24.777-3.232c0.23,0.088,0.471,0.144,0.717,0.144  c0.431,0,0.865-0.139,1.231-0.425c0.125-0.098,0.232-0.209,0.327-0.328c0.059-0.046,0.128-0.077,0.182-0.13l57.778-57.808  c0.294-0.295,0.489-0.674,0.558-1.085c0.05-0.301,1.126-7.48-7.744-16.349c-7.052-7.053-13.021-7.814-15.26-7.814  c-0.61,0-0.985,0.055-1.085,0.071c-0.412,0.068-0.791,0.264-1.086,0.559L39.818,34.421L10.599,63.093  c-0.307,0.301-0.508,0.693-0.575,1.117l-4,25.48c-0.098,0.623,0.104,1.254,0.543,1.706C6.946,91.785,7.464,92,8,92z M13.651,66.899  c1.23,0.195,3.531,0.665,6.66,2.687c0.078,0.123,0.167,0.241,0.275,0.349c0.286,0.286,0.638,0.465,1.007,0.542  c1.229,0.902,2.562,2.027,3.993,3.458c4.734,4.734,5.91,8.732,6.158,10.952L19.33,86.505C18.728,85.353,17.677,83.677,16,82  c-1.581-1.581-3.157-2.325-4.299-2.678L13.651,66.899z M61.546,18.35c1.729,0.263,6.076,1.018,12.122,7.064  c6.334,6.334,6.308,11.356,6.195,12.547l-1.503,1.504c-0.727-2.964-2.556-6.969-6.946-11.359c-5.062-5.062-9.233-6.922-11.94-7.684  L61.546,18.35z M35.364,82.483c-0.447-1.831-1.327-4.062-2.962-6.536l40.106-40.106c2.05,3.375,2.318,5.976,2.298,7.18  L35.364,82.483z M68.586,30.935c0.562,0.562,1.057,1.109,1.523,1.648L29.946,72.746c-0.476-0.541-0.978-1.086-1.532-1.64  c-1.131-1.131-2.212-2.089-3.248-2.923l40.158-40.158C66.346,28.825,67.435,29.784,68.586,30.935z M70.939,8.957  c1.502,0.028,6.316,0.639,12.317,6.642c6.026,6.025,6.635,10.748,6.651,12.313l-6.384,6.387c-0.665-2.995-2.458-7.145-7.027-11.713  c-4.86-4.86-8.893-6.764-11.604-7.583L70.939,8.957z M42.633,37.263l13.452-13.452c0.096,0.017,0.189,0.031,0.274,0.044  c0.974,0.147,2.9,0.446,5.569,1.91L21.856,65.836c-2.346-1.431-4.307-2.141-5.776-2.518L42.633,37.263z"/>
</svg>